<?xml version="1.0" encoding="utf-8" ?><svg xmlns="http://www.w3.org/2000/svg" xmlns:xlink="http://www.w3.org/1999/xlink" width="1536" height="768" viewBox="0 0 1536 768"><path fill="#FEFDFD" d="M0 0L1536 0L1536 768L0 768L0 0Z"/><path fill="#030F5E" d="M748.881 275.287L864.753 275.249C859.855 297.186 853.155 321.465 847.445 343.28C834.428 393.083 821.003 442.778 807.174 492.361L718.248 492.583C704.965 479.731 682.801 463.311 667.4 453.371C655.72 466.128 642.026 479.495 629.917 492.319L530.712 492.548C544.989 476.844 564.447 458.576 579.754 442.924C588.816 434.007 597.779 424.988 606.64 415.871C618.05 423.643 631.581 429.766 643.129 437.558C650.565 442.576 658.68 447.422 666.422 451.994C683.168 438.877 707.451 423.557 728.421 417.501C731.183 416.703 746.053 417.115 749.863 417.176C755.355 395.435 761.627 373.872 767.196 352.226C760.117 360.936 745.916 374.674 737.627 383.381C729.386 392.037 714.798 408.143 706.17 415.37C673.643 415.298 639.247 414.477 606.989 415.669C610.13 412.348 613.736 408.946 617.058 405.764C661.687 363.029 704.478 318.204 748.881 275.287Z"/><path fill="#030F5E" d="M943.331 275.544C946.941 274.992 959.328 275.185 963.449 275.192L1001.38 275.277L1133.04 275.377C1127.18 281.451 1119.24 288.051 1112.96 294.105C1094.09 312.309 1074.22 329.904 1055.61 348.354C1037.95 347.29 1015.1 348.621 996.656 348.131C986.672 349.755 952.636 345.621 944.642 348.901C927.257 356.034 891.677 369.56 876.14 377.621C896.517 375.159 918.414 371.525 938.867 368.568C936.633 380.106 929.085 404.375 925.813 416.906C948.083 417.165 970.354 417.278 992.625 417.244L1094.84 417.235C1068.81 442.049 1043.04 467.147 1017.55 492.525C988.766 493.028 959.666 492.295 930.846 492.551C914.272 491.625 894.659 494.226 878.495 491.467C843.959 485.572 835.94 450.245 844.597 420.947C849.064 405.831 851.542 390.164 855.971 375.208C860.401 360.251 862.893 344.401 868.489 330.082C871.33 322.775 875.26 315.94 880.146 309.809C895.902 289.935 918.346 278.502 943.331 275.544Z"/><path fill="#030F5E" d="M424.081 275.231L721.052 275.375C696.368 299.851 670.624 323.468 645.742 348.203C617.637 348.297 589.533 348.245 561.429 348.046L537.713 430.524L519.862 492.472L439.484 492.43C450.475 459.856 461.699 416.593 470.857 382.832C493.366 370.871 520.164 360.377 542.23 348.153C497.159 349.096 448.551 348.114 403.189 348.027C410.355 323.82 417.32 299.554 424.081 275.231Z"/></svg>